<svg width="30" height="30" viewBox="0 0 30 30" fill="none" xmlns="http://www.w3.org/2000/svg">
<g clip-path="url(#clip0)">
<path d="M29.3628 11.243H1.8526C1.50747 11.243 1.22734 11.5232 1.22734 11.8683V26.8739C1.22734 28.597 2.62913 30 4.35349 30H26.8618C28.5863 30 29.988 28.597 29.988 26.8739V11.8683C29.988 11.5231 29.708 11.243 29.3628 11.243ZM28.7376 26.8738C28.7376 27.908 27.8961 28.7495 26.8619 28.7495H4.35354C3.31939 28.7495 2.47785 27.908 2.47785 26.8738V12.4935H28.7376V26.8738Z" fill="white"/>
<path d="M29.9681 5.4571L28.9039 1.41937C28.6588 0.437737 27.656 -0.178723 26.6618 0.0463609L1.46996 6.02356C0.974775 6.1361 0.55585 6.43744 0.289501 6.87014C0.0231523 7.30278 -0.055627 7.81297 0.0693999 8.30816L1.24734 12.9649C1.31738 13.2475 1.57248 13.4363 1.85254 13.4363C1.90254 13.4363 1.95383 13.4313 2.00758 13.4176C2.34145 13.3338 2.54403 12.9936 2.45898 12.6585L2.39022 12.3872L29.5015 6.22742C29.6666 6.18868 29.8104 6.0861 29.8979 5.94109C29.9868 5.79601 30.0105 5.62093 29.9681 5.4571ZM2.08396 11.1742L1.28116 8.0043C1.23989 7.83923 1.26738 7.66919 1.35496 7.52412C1.44376 7.38033 1.58379 7.28028 1.75383 7.24024L26.9457 1.26433C26.9907 1.25308 27.0369 1.2481 27.0819 1.2481C27.3621 1.2481 27.6209 1.44065 27.6922 1.72951L28.5938 5.14954L2.08396 11.1742Z" fill="white"/>
<path d="M7.13456 11.3081C6.82442 11.1568 6.4518 11.2793 6.29425 11.5882L3.7933 16.59C3.63949 16.8989 3.76452 17.274 4.07342 17.4291C4.16469 17.4741 4.25976 17.4954 4.35355 17.4954C4.58238 17.4954 4.80371 17.3691 4.91373 17.149L7.41468 12.1472C7.56849 11.8382 7.4434 11.4631 7.13456 11.3081Z" fill="white"/>
<path d="M13.3857 11.3081C13.0768 11.1568 12.7017 11.2793 12.5466 11.5882L10.0456 16.59C9.89183 16.8989 10.0169 17.274 10.3258 17.4291C10.417 17.4741 10.5121 17.4954 10.6059 17.4954C10.8347 17.4954 11.0561 17.3691 11.1648 17.149L13.6658 12.1472C13.8195 11.8382 13.6945 11.4631 13.3857 11.3081Z" fill="white"/>
<path d="M19.6379 11.3081C19.3303 11.1568 18.9552 11.2793 18.7989 11.5882L16.2979 16.59C16.1441 16.8989 16.2691 17.274 16.578 17.4291C16.6693 17.4741 16.7644 17.4954 16.8582 17.4954C17.087 17.4954 17.3083 17.3691 17.4171 17.149L19.9181 12.1472C20.0719 11.8382 19.9468 11.4631 19.6379 11.3081Z" fill="white"/>
<path d="M25.8903 11.3081C25.5802 11.1568 25.2076 11.2793 25.0512 11.5882L22.5503 16.59C22.3965 16.8989 22.5215 17.274 22.8304 17.4291C22.9217 17.4741 23.0167 17.4954 23.1105 17.4954C23.3394 17.4954 23.5607 17.3691 23.6695 17.149L26.1704 12.1472C26.3242 11.8382 26.1992 11.4631 25.8903 11.3081Z" fill="white"/>
<path d="M29.3628 16.2449H1.8526C1.50747 16.2449 1.22734 16.525 1.22734 16.8701C1.22734 17.2153 1.50747 17.4954 1.8526 17.4954H29.3628C29.7092 17.4954 29.9881 17.2153 29.9881 16.8701C29.9881 16.525 29.708 16.2449 29.3628 16.2449Z" fill="white"/>
<path d="M7.89861 10.1514L3.59201 5.84478C3.34817 5.60094 2.95175 5.60094 2.70791 5.84478C2.46407 6.08862 2.46407 6.48503 2.70791 6.72887L7.01451 11.0367C7.13707 11.158 7.29709 11.2193 7.45717 11.2193C7.61725 11.2193 7.77727 11.158 7.89861 11.0355C8.14245 10.7916 8.14245 10.3952 7.89861 10.1514Z" fill="white"/>
<path d="M14.0158 8.76206L9.70555 4.45546C9.46171 4.21162 9.06529 4.21162 8.82145 4.45546C8.57761 4.6993 8.57761 5.09572 8.82145 5.33956L13.1306 9.64616C13.2531 9.76743 13.4132 9.82875 13.5732 9.82875C13.7333 9.82875 13.8933 9.76749 14.0159 9.64616C14.2597 9.40232 14.2597 9.0059 14.0158 8.76206Z" fill="white"/>
<path d="M20.1282 7.37282L15.8253 3.06499C15.5815 2.82115 15.1851 2.82115 14.9412 3.06499C14.6974 3.30883 14.6974 3.70525 14.9412 3.94909L19.2441 8.25692C19.3666 8.37819 19.5267 8.43951 19.6867 8.43951C19.8468 8.43951 20.0068 8.37948 20.1282 8.25692C20.372 8.01308 20.372 7.61666 20.1282 7.37282Z" fill="white"/>
<path d="M26.2379 5.98482L21.9338 1.67699C21.69 1.43315 21.2935 1.43315 21.0497 1.67699C20.8059 1.92083 20.8059 2.31725 21.0497 2.56109L25.3538 6.86892C25.4763 6.99019 25.6364 7.05151 25.7964 7.05151C25.9565 7.05151 26.1165 6.99025 26.2379 6.86892C26.4818 6.62508 26.4818 6.22866 26.2379 5.98482Z" fill="white"/>
</g>
<defs>
<clipPath id="clip0">
<rect width="30" height="30" fill="white"/>
</clipPath>
</defs>
</svg>
